<svg width="110" height="51" viewBox="0 0 110 51" fill="none" xmlns="http://www.w3.org/2000/svg">
<path d="M106.886 16.7179C105.067 15.6184 101.242 14.0791 99.2662 13.4194C97.5727 12.854 93.8724 12.0687 92.0536 11.8174C89.451 11.4404 86.9737 11.032 84.3081 10.7493C82.9283 10.5922 81.6114 10.6237 80.1689 10.4038C77.2526 9.96399 74.0228 10.1525 71.0436 10.3409C70.7299 9.90116 70.7299 9.71266 70.4478 9.21007C68.1273 5.00066 64.3643 2.92738 60.0368 1.074C59.1589 0.697037 57.5595 0.257245 56.0858 0.0687652C55.3644 -0.0254752 53.828 -0.151121 53.4517 0.665627C52.6991 2.26771 53.9222 4.05825 54.6747 6.32003C54.9881 7.32525 55.5212 9.27287 55.7095 10.7807C55.8348 11.5975 55.678 11.9744 55.3332 12.1943C54.8316 12.477 54.3923 12.6027 53.7339 12.7284C49.0615 13.8278 47.7758 14.3304 43.3229 16.121C39.0583 17.8173 40.1557 17.8802 37.1453 16.7807C31.7518 14.833 34.1976 17.9744 34.5427 19.388L31.344 20.5189C30.7482 20.7388 30.2151 20.833 29.6193 21.0215C29.1492 21.1786 28.3966 21.3356 27.832 21.3356L24.947 18.8226C24.6021 18.3828 24.1631 17.8173 23.7241 17.4089C21.9053 15.4927 20.4001 14.0791 18.1737 12.5399C17.8287 12.2886 17.7346 12.2257 17.4211 11.9744C13.8462 9.14724 4.84641 5.75458 1.17749 5.75458L0.644409 6.2572C1.86739 7.98495 3.05898 9.80691 4.5642 11.2833L14.8811 23.3147C15.4455 24.0058 16.7939 25.4508 16.543 26.5188C16.3235 27.4298 11.4003 36.0685 10.3341 38.1732C9.98916 38.833 9.55016 39.6181 9.48743 40.372C9.42471 41.283 10.4282 41.5345 11.1808 41.5345C19.0517 41.5345 24.3512 33.367 26.17 33.367C27.581 33.367 32.6924 34.4978 34.4485 34.8119C34.3232 35.5032 34.1349 36.2256 34.1037 36.9166C34.1037 37.3878 34.2917 37.4193 34.9504 37.3251L36.6751 37.0425C38.0862 36.6024 38.4937 35.2831 40.1245 35.5344C42.8212 35.9744 54.7686 37.5449 56.9011 37.5449C56.9011 40.0581 56.6501 42.634 56.3053 45.1156C56.1799 46.1207 55.8663 46.8119 55.5842 47.66C55.3644 48.3512 55.051 48.9166 55.1449 49.5764C55.2705 50.4559 55.9605 50.2674 56.7131 50.1103C57.4342 49.9217 58.1553 49.5764 58.8452 49.3564C63.0472 47.5973 66.1205 43.9219 68.3468 40.0581C69.4757 38.0791 69.852 37.1993 70.5105 35.6602C70.5105 35.6602 70.6987 35.4717 70.6987 35.7858C70.6361 37.011 70.5419 37.5449 70.3224 38.613C73.1133 38.6759 76.8448 39.0213 79.5104 38.8642C82.0191 38.7386 85.4058 38.4874 87.8516 37.9847C89.5136 37.6393 91.2071 36.3512 91.2071 36.3512C90.9874 36.3512 90.2977 36.0685 90.2977 36.0685C90.2662 35.6914 90.1721 35.2205 90.1721 34.6236L88.6042 35.2831V33.5868L86.6286 34.1209L86.2211 32.5502L84.7786 33.0843L84.3708 31.7648C83.7438 31.0423 83.1792 30.1313 82.4266 29.1889C84.2769 30.2569 84.4335 30.3513 85.3117 30.8538L85.9701 31.7648L87.538 30.9797L88.1967 32.0477L89.8899 31.2623L90.423 32.7072L92.1165 31.5136L92.9003 32.8328C93.4334 32.5502 94.7818 31.7021 95.2522 31.6392L95.6597 33.3355L97.5412 31.7962C98.1058 31.2935 97.8549 31.2623 98.4194 31.1679C99.862 30.9167 101.273 30.0687 102.559 29.3147C103.311 28.8747 104.064 28.4037 104.754 27.8381C104.785 27.8069 104.816 27.8069 104.816 27.7754L105.161 27.4613C107.137 25.545 108.517 23.3461 109.207 20.5817C109.74 18.3514 108.454 17.6917 106.886 16.7179ZM94.2175 22.8434C93.402 22.1209 93.9039 19.9534 95.5344 19.9534C96.4438 19.9534 97.1649 20.8958 97.1964 21.6812C97.2279 22.8749 95.5659 24.0372 94.2175 22.8434Z" fill="url(#paint0_radial_551_96)"/>
<defs>
<radialGradient id="paint0_radial_551_96" cx="0" cy="0" r="1" gradientUnits="userSpaceOnUse" gradientTransform="translate(0.644404 25.1218) rotate(-2.15977) scale(108.762)">
<stop stop-color="#7C9A4B"/>
<stop offset="0.5304" stop-color="#95E259"/>
<stop offset="0.99" stop-color="#FFD600"/>
</radialGradient>
</defs>
</svg>
